<svg xmlns="http://www.w3.org/2000/svg" width="152" height="36" viewBox="0 0 152 36" fill="none">
<path d="M139.461 25.8281V32.1072H135.649V5.5332H139.461V21.829L146.152 14.466H150.861L143.76 21.9037L151.197 32.1072H146.675L141.106 24.1836L139.461 25.8281Z" fill="white"></path>
<path d="M126.942 32.1083V17.3076H119.953V32.1083H116.14V17.3076H113.524V14.467H116.14V12.5983C116.14 11.5019 116.315 10.5177 116.664 9.64558C117.013 8.74857 117.498 7.9886 118.121 7.36567C118.769 6.71783 119.554 6.23195 120.476 5.90802C121.398 5.55919 122.42 5.38477 123.541 5.38477C124.313 5.38477 125.148 5.49689 126.045 5.72115C126.942 5.92048 127.714 6.18211 128.362 6.50603L127.577 9.12232C127.104 8.92299 126.581 8.76103 126.008 8.63644C125.459 8.51186 124.936 8.44956 124.438 8.44956C122.968 8.44956 121.846 8.78594 121.074 9.4587C120.327 10.1315 119.953 11.315 119.953 13.0094V14.467H130.792V32.1083H126.942Z" fill="white"></path>
<path d="M106.129 32.1076V14.4663H109.979V32.1076H106.129ZM108.072 10.0934C107.4 10.0934 106.864 9.89404 106.465 9.49537C106.067 9.07178 105.867 8.54852 105.867 7.9256C105.867 7.30267 106.067 6.79187 106.465 6.3932C106.864 5.96961 107.4 5.75781 108.072 5.75781C108.72 5.75781 109.244 5.96961 109.642 6.3932C110.066 6.79187 110.278 7.30267 110.278 7.9256C110.278 8.57344 110.066 9.0967 109.642 9.49537C109.244 9.89404 108.72 10.0934 108.072 10.0934Z" fill="white"></path>
<path d="M91.7375 32.1082V14.467H94.6528L95.2135 17.8682C95.6371 16.8216 96.3223 15.9495 97.2691 15.2519C98.216 14.5293 99.3622 14.168 100.708 14.168C101.306 14.168 101.816 14.2178 102.24 14.3175C102.689 14.4171 103.087 14.5542 103.436 14.7286L102.726 17.9429C102.427 17.7934 102.078 17.6688 101.679 17.5691C101.306 17.4695 100.87 17.4196 100.371 17.4196C99.0009 17.4196 97.8547 17.8931 96.9328 18.8399C96.0108 19.7618 95.5499 21.1697 95.5499 23.0634V32.1082H91.7375Z" fill="white"></path>
<path d="M88.0452 23.9604H75.6738V24.1099C75.6738 25.9039 76.1971 27.2619 77.2436 28.1838C78.2901 29.1057 79.673 29.5667 81.3923 29.5667C82.3392 29.5667 83.1863 29.492 83.9339 29.3425C84.7063 29.168 85.4787 28.9064 86.2511 28.5576L86.9987 31.3607C86.2761 31.6847 85.4164 31.9463 84.4197 32.1456C83.4231 32.3699 82.3267 32.482 81.1307 32.482C79.8599 32.482 78.6514 32.3076 77.5053 31.9587C76.3591 31.6099 75.3499 31.0617 74.4778 30.3142C73.6306 29.5667 72.9579 28.6199 72.4595 27.4737C71.9612 26.3275 71.712 24.9571 71.712 23.3624C71.712 21.9919 71.9114 20.7461 72.31 19.6248C72.7336 18.4786 73.3192 17.5069 74.0667 16.7095C74.8391 15.8872 75.7611 15.2643 76.8325 14.8407C77.9288 14.3922 79.1373 14.168 80.4579 14.168C81.6041 14.168 82.6382 14.3548 83.5601 14.7286C84.5069 15.1024 85.3043 15.6381 85.9521 16.3358C86.6249 17.0085 87.1357 17.8432 87.4845 18.8399C87.8583 19.8117 88.0452 20.8956 88.0452 22.0916V23.9604ZM84.0834 21.2693C84.0834 20.6713 84.0086 20.1107 83.8591 19.5874C83.7096 19.0642 83.4853 18.6157 83.1863 18.2419C82.8873 17.8432 82.4887 17.5318 81.9903 17.3075C81.5169 17.0583 80.9438 16.9338 80.271 16.9338C79.0252 16.9338 78.0036 17.3324 77.2062 18.1298C76.4338 18.9271 75.9604 19.9986 75.786 21.3441L84.0834 21.2693Z" fill="white"></path>
<path d="M54.3318 8.5625L58.8917 21.4571C59.0412 21.8807 59.2031 22.3541 59.3775 22.8773C59.5769 23.4006 59.7762 23.9488 59.9756 24.5219C60.1749 25.0701 60.3618 25.6307 60.5362 26.2038C60.7355 26.7519 60.9099 27.2628 61.0594 27.7362H61.1342C61.2588 27.2628 61.4083 26.7644 61.5827 26.2412C61.7571 25.693 61.9315 25.1448 62.106 24.5966C62.2804 24.0485 62.4548 23.5252 62.6292 23.0269C62.8036 22.5285 62.9656 22.0925 63.1151 21.7187L67.8992 8.5625H72.0479L63.0777 32.1091H59.0038L50.1084 8.5625H54.3318Z" fill="white"></path>
<path d="M40.1672 1.48121C40.1672 1.48121 35.2314 -0.431382 31.1427 3.95016C27.8913 1.47476 23.7768 0 19.3784 0C15.0612 0 10.8092 1.50218 7.41386 4.17674C4.07241 6.81018 1.65601 10.5741 0.610295 14.7065C-0.909205 20.7063 0.329562 28.122 5.21947 32.2617C10.0603 36.3602 16.5252 37.1206 21.8173 34.3864C25.1218 32.6794 27.3234 30.033 28.8333 26.6505C30.8161 22.2085 33.0306 17.0908 35.0126 12.6488C36.6415 16.0877 36.6978 20.004 35.99 23.3623C35.2829 26.7199 33.44 29.8266 30.8354 32.0537C30.4477 32.3851 30.0342 32.7084 29.7825 33.1519C29.1526 34.2581 30.3681 35.5644 31.4411 34.7234C31.9229 34.346 32.4152 33.9163 32.8745 33.4397C36.5056 29.9105 38.8359 24.958 38.8359 19.4872C38.8359 16.0426 37.9141 12.6899 36.3455 9.88468C38.4924 5.14594 40.1688 1.4804 40.1688 1.4804M11.386 26.6924C8.1708 26.8827 4.99424 25.104 3.49485 22.248C2.81675 20.9571 2.47408 19.488 2.54084 18.0285C2.69689 14.6178 4.04747 11.3159 6.19601 8.68085C8.28422 6.11997 11.1229 4.19851 14.2689 3.20351C14.8971 3.00516 15.5374 2.84228 16.185 2.71891C17.2403 2.51733 18.3142 2.41735 19.3889 2.41735C23.4969 2.41735 27.1995 3.83889 29.7728 5.92404C29.2869 6.64166 28.7995 7.35848 28.3112 8.0753C27.1601 9.76535 26.005 11.453 24.8451 13.1366C23.4873 15.1064 22.1238 17.0722 20.7443 19.0267C18.8515 21.707 17.2226 24.8403 14.0268 26.132C13.1991 26.4667 12.2756 26.64 11.3868 26.6924H11.386Z" fill="white"></path>
</svg>
<svg width="200" height="200" viewBox="0 0 200 200" xmlns="http://www.w3.org/2000/svg"><g fill="none" fill-rule="evenodd"><path fill="#FFF" d="M99 52h84v34H99z"/><path d="M23 163c-7.398 0-13.843-4.027-17.303-10A19.886 19.886 0 0 0 3 163c0 11.046 8.954 20 20 20h20v-20H23z" fill="#3ECC5F"/><path d="M112.98 57.376L183 53V43c0-11.046-8.954-20-20-20H73l-2.5-4.33c-1.112-1.925-3.889-1.925-5 0L63 23l-2.5-4.33c-1.111-1.925-3.889-1.925-5 0L53 23l-2.5-4.33c-1.111-1.925-3.889-1.925-5 0L43 23c-.022 0-.042.003-.065.003l-4.142-4.141c-1.57-1.571-4.252-.853-4.828 1.294l-1.369 5.104-5.192-1.392c-2.148-.575-4.111 1.389-3.535 3.536l1.39 5.193-5.102 1.367c-2.148.576-2.867 3.259-1.296 4.83l4.142 4.142c0 .021-.003.042-.003.064l-4.33 2.5c-1.925 1.111-1.925 3.889 0 5L23 53l-4.33 2.5c-1.925 1.111-1.925 3.889 0 5L23 63l-4.33 2.5c-1.925 1.111-1.925 3.889 0 5L23 73l-4.33 2.5c-1.925 1.111-1.925 3.889 0 5L23 83l-4.33 2.5c-1.925 1.111-1.925 3.889 0 5L23 93l-4.33 2.5c-1.925 1.111-1.925 3.889 0 5L23 103l-4.33 2.5c-1.925 1.111-1.925 3.889 0 5L23 113l-4.33 2.5c-1.925 1.111-1.925 3.889 0 5L23 123l-4.33 2.5c-1.925 1.111-1.925 3.889 0 5L23 133l-4.33 2.5c-1.925 1.111-1.925 3.889 0 5L23 143l-4.33 2.5c-1.925 1.111-1.925 3.889 0 5L23 153l-4.33 2.5c-1.925 1.111-1.925 3.889 0 5L23 163c0 11.046 8.954 20 20 20h120c11.046 0 20-8.954 20-20V83l-70.02-4.376A10.645 10.645 0 0 1 103 68c0-5.621 4.37-10.273 9.98-10.624" fill="#3ECC5F"/><path fill="#3ECC5F" d="M143 183h30v-40h-30z"/><path d="M193 158c-.219 0-.428.037-.639.064-.038-.15-.074-.301-.116-.451A5 5 0 0 0 190.32 148a4.96 4.96 0 0 0-3.016 1.036 26.531 26.531 0 0 0-.335-.336 4.955 4.955 0 0 0 1.011-2.987 5 5 0 0 0-9.599-1.959c-.148-.042-.297-.077-.445-.115.027-.211.064-.42.064-.639a5 5 0 0 0-5-5 5 5 0 0 0-5 5c0 .219.037.428.064.639-.148.038-.297.073-.445.115a4.998 4.998 0 0 0-9.599 1.959c0 1.125.384 2.151 1.011 2.987-3.717 3.632-6.031 8.693-6.031 14.3 0 11.046 8.954 20 20 20 9.339 0 17.16-6.41 19.361-15.064.211.027.42.064.639.064a5 5 0 0 0 5-5 5 5 0 0 0-5-5" fill="#44D860"/><path fill="#3ECC5F" d="M153 123h30v-20h-30z"/><path d="M193 115.5a2.5 2.5 0 1 0 0-5c-.109 0-.214.019-.319.032-.02-.075-.037-.15-.058-.225a2.501 2.501 0 0 0-.963-4.807c-.569 0-1.088.197-1.508.518a6.653 6.653 0 0 0-.168-.168c.314-.417.506-.931.506-1.494a2.5 2.5 0 0 0-4.8-.979A9.987 9.987 0 0 0 183 103c-5.522 0-10 4.478-10 10s4.478 10 10 10c.934 0 1.833-.138 2.69-.377a2.5 2.5 0 0 0 4.8-.979c0-.563-.192-1.077-.506-1.494.057-.055.113-.111.168-.168.42.321.939.518 1.508.518a2.5 2.5 0 0 0 .963-4.807c.021-.074.038-.15.058-.225.105.013.21.032.319.032" fill="#44D860"/><path d="M63 55.5a2.5 2.5 0 0 1-2.5-2.5c0-4.136-3.364-7.5-7.5-7.5s-7.5 3.364-7.5 7.5a2.5 2.5 0 1 1-5 0c0-6.893 5.607-12.5 12.5-12.5S65.5 46.107 65.5 53a2.5 2.5 0 0 1-2.5 2.5" fill="#000"/><path d="M103 183h60c11.046 0 20-8.954 20-20V93h-60c-11.046 0-20 8.954-20 20v70z" fill="#FFFF50"/><path d="M168.02 124h-50.04a1 1 0 1 1 0-2h50.04a1 1 0 1 1 0 2m0 20h-50.04a1 1 0 1 1 0-2h50.04a1 1 0 1 1 0 2m0 20h-50.04a1 1 0 1 1 0-2h50.04a1 1 0 1 1 0 2m0-49.814h-50.04a1 1 0 1 1 0-2h50.04a1 1 0 1 1 0 2m0 19.814h-50.04a1 1 0 1 1 0-2h50.04a1 1 0 1 1 0 2m0 20h-50.04a1 1 0 1 1 0-2h50.04a1 1 0 1 1 0 2M183 61.611c-.012 0-.022-.006-.034-.005-3.09.105-4.552 3.196-5.842 5.923-1.346 2.85-2.387 4.703-4.093 4.647-1.889-.068-2.969-2.202-4.113-4.46-1.314-2.594-2.814-5.536-5.963-5.426-3.046.104-4.513 2.794-5.807 5.167-1.377 2.528-2.314 4.065-4.121 3.994-1.927-.07-2.951-1.805-4.136-3.813-1.321-2.236-2.848-4.75-5.936-4.664-2.994.103-4.465 2.385-5.763 4.4-1.373 2.13-2.335 3.428-4.165 3.351-1.973-.07-2.992-1.51-4.171-3.177-1.324-1.873-2.816-3.993-5.895-3.89-2.928.1-4.399 1.97-5.696 3.618-1.232 1.564-2.194 2.802-4.229 2.724a1 1 0 0 0-.072 2c3.017.101 4.545-1.8 5.872-3.487 1.177-1.496 2.193-2.787 4.193-2.855 1.926-.082 2.829 1.115 4.195 3.045 1.297 1.834 2.769 3.914 5.731 4.021 3.103.104 4.596-2.215 5.918-4.267 1.182-1.834 2.202-3.417 4.15-3.484 1.793-.067 2.769 1.35 4.145 3.681 1.297 2.197 2.766 4.686 5.787 4.796 3.125.108 4.634-2.62 5.949-5.035 1.139-2.088 2.214-4.06 4.119-4.126 1.793-.042 2.728 1.595 4.111 4.33 1.292 2.553 2.757 5.445 5.825 5.556l.169.003c3.064 0 4.518-3.075 5.805-5.794 1.139-2.41 2.217-4.68 4.067-4.773v-2z" fill="#000"/><path fill="#3ECC5F" d="M83 183h40v-40H83z"/><path d="M143 158c-.219 0-.428.037-.639.064-.038-.15-.074-.301-.116-.451A5 5 0 0 0 140.32 148a4.96 4.96 0 0 0-3.016 1.036 26.531 26.531 0 0 0-.335-.336 4.955 4.955 0 0 0 1.011-2.987 5 5 0 0 0-9.599-1.959c-.148-.042-.297-.077-.445-.115.027-.211.064-.42.064-.639a5 5 0 0 0-5-5 5 5 0 0 0-5 5c0 .219.037.428.064.639-.148.038-.297.073-.445.115a4.998 4.998 0 0 0-9.599 1.959c0 1.125.384 2.151 1.011 2.987-3.717 3.632-6.031 8.693-6.031 14.3 0 11.046 8.954 20 20 20 9.339 0 17.16-6.41 19.361-15.064.211.027.42.064.639.064a5 5 0 0 0 5-5 5 5 0 0 0-5-5" fill="#44D860"/><path fill="#3ECC5F" d="M83 123h40v-20H83z"/><path d="M133 115.5a2.5 2.5 0 1 0 0-5c-.109 0-.214.019-.319.032-.02-.075-.037-.15-.058-.225a2.501 2.501 0 0 0-.963-4.807c-.569 0-1.088.197-1.508.518a6.653 6.653 0 0 0-.168-.168c.314-.417.506-.931.506-1.494a2.5 2.5 0 0 0-4.8-.979A9.987 9.987 0 0 0 123 103c-5.522 0-10 4.478-10 10s4.478 10 10 10c.934 0 1.833-.138 2.69-.377a2.5 2.5 0 0 0 4.8-.979c0-.563-.192-1.077-.506-1.494.057-.055.113-.111.168-.168.42.321.939.518 1.508.518a2.5 2.5 0 0 0 .963-4.807c.021-.074.038-.15.058-.225.105.013.21.032.319.032" fill="#44D860"/><path d="M143 41.75c-.16 0-.33-.02-.49-.05a2.52 2.52 0 0 1-.47-.14c-.15-.06-.29-.14-.431-.23-.13-.09-.259-.2-.38-.31-.109-.12-.219-.24-.309-.38s-.17-.28-.231-.43a2.619 2.619 0 0 1-.189-.96c0-.16.02-.33.05-.49.03-.16.08-.31.139-.47.061-.15.141-.29.231-.43.09-.13.2-.26.309-.38.121-.11.25-.22.38-.31.141-.09.281-.17.431-.23.149-.06.31-.11.47-.14.32-.07.65-.07.98 0 .159.03.32.08.47.14.149.06.29.14.43.23.13.09.259.2.38.31.11.12.22.25.31.38.09.14.17.28.23.43.06.16.11.31.14.47.029.16.05.33.05.49 0 .66-.271 1.31-.73 1.77-.121.11-.25.22-.38.31-.14.09-.281.17-.43.23a2.565 2.565 0 0 1-.96.19m20-1.25c-.66 0-1.3-.27-1.771-.73a3.802 3.802 0 0 1-.309-.38c-.09-.14-.17-.28-.231-.43a2.619 2.619 0 0 1-.189-.96c0-.66.27-1.3.729-1.77.121-.11.25-.22.38-.31.141-.09.281-.17.431-.23.149-.06.31-.11.47-.14.32-.07.66-.07.98 0 .159.03.32.08.47.14.149.06.29.14.43.23.13.09.259.2.38.31.459.47.73 1.11.73 1.77 0 .16-.021.33-.05.49-.03.16-.08.32-.14.47-.07.15-.14.29-.23.43-.09.13-.2.26-.31.38-.121.11-.25.22-.38.31-.14.09-.281.17-.43.23a2.565 2.565 0 0 1-.96.19" fill="#000"/></g></svg>