<svg xmlns="http://www.w3.org/2000/svg" width="421" height="100" viewBox="0 0 421 100" fill="none"><path d="M387.89 71.7474V89.1892H377.301V15.373H387.89V60.6386L406.474 40.1861H419.556L399.83 60.8463L420.49 89.1892H407.928L392.459 67.1793L387.89 71.7474Z" fill="#010333"></path><path d="M353.119 89.1894V48.0766H333.705V89.1894H323.115V48.0766H315.848V40.1863H323.115V34.9953C323.115 31.9499 323.6 29.216 324.569 26.7935C325.538 24.3018 326.887 22.1908 328.618 20.4605C330.417 18.6609 332.597 17.3113 335.158 16.4115C337.719 15.4425 340.557 14.958 343.671 14.958C345.817 14.958 348.136 15.2695 350.627 15.8924C353.119 16.4461 355.265 17.1728 357.064 18.0726L354.884 25.34C353.569 24.7863 352.115 24.3364 350.524 23.9904C349.001 23.6443 347.547 23.4713 346.163 23.4713C342.08 23.4713 338.965 24.4056 336.819 26.2744C334.743 28.1432 333.705 31.4308 333.705 36.1373V40.1863H363.813V89.1894H353.119Z" fill="#010333"></path><path d="M295.309 89.1895V40.1864H306.002V89.1895H295.309ZM300.707 28.0395C298.839 28.0395 297.351 27.4858 296.243 26.3784C295.136 25.2017 294.582 23.7482 294.582 22.0179C294.582 20.2876 295.136 18.8687 296.243 17.7613C297.351 16.5847 298.839 15.9963 300.707 15.9963C302.507 15.9963 303.96 16.5847 305.068 17.7613C306.244 18.8687 306.833 20.2876 306.833 22.0179C306.833 23.8175 306.244 25.2709 305.068 26.3784C303.96 27.4858 302.507 28.0395 300.707 28.0395Z" fill="#010333"></path><path d="M255.328 89.1896V40.1865H263.426L264.983 49.6342C266.16 46.7272 268.063 44.3047 270.694 42.3667C273.324 40.3596 276.507 39.356 280.245 39.356C281.906 39.356 283.325 39.4944 284.502 39.7712C285.747 40.0481 286.855 40.4288 287.824 40.9133L285.851 49.8418C285.021 49.4265 284.052 49.0804 282.944 48.8036C281.906 48.5267 280.695 48.3883 279.311 48.3883C275.504 48.3883 272.32 49.7034 269.759 52.3335C267.198 54.8944 265.918 58.8049 265.918 64.0652V89.1896H255.328Z" fill="#010333"></path><path d="M245.073 66.5568H210.708V66.9721C210.708 71.9555 212.162 75.7276 215.069 78.2885C217.975 80.8494 221.817 82.1299 226.593 82.1299C229.223 82.1299 231.576 81.9222 233.652 81.5069C235.798 81.0224 237.944 80.2957 240.089 79.3267L242.166 87.1132C240.158 88.013 237.771 88.7397 235.002 89.2934C232.233 89.9164 229.188 90.2278 225.866 90.2278C222.336 90.2278 218.979 89.7433 215.795 88.7744C212.611 87.8054 209.808 86.2827 207.386 84.2063C205.033 82.1299 203.164 79.4997 201.78 76.3159C200.395 73.1321 199.703 69.3254 199.703 64.8957C199.703 61.089 200.257 57.6283 201.364 54.5137C202.541 51.3299 204.167 48.6306 206.244 46.4157C208.389 44.1317 210.95 42.4013 213.926 41.2247C216.972 39.9789 220.329 39.356 223.997 39.356C227.181 39.356 230.053 39.8751 232.614 40.9133C235.244 41.9515 237.459 43.4395 239.259 45.3775C241.127 47.2463 242.546 49.5649 243.515 52.3335C244.553 55.0328 245.073 58.0436 245.073 61.3658V66.5568ZM234.068 59.0818C234.068 57.4207 233.86 55.8634 233.445 54.4099C233.029 52.9564 232.406 51.7106 231.576 50.6723C230.745 49.5649 229.638 48.6998 228.254 48.0768C226.939 47.3847 225.347 47.0386 223.478 47.0386C220.017 47.0386 217.18 48.1461 214.965 50.3609C212.819 52.5757 211.504 55.5519 211.02 59.2894L234.068 59.0818Z" fill="#010333"></path><path d="M151.427 23.7832L164.093 59.6012C164.508 60.7778 164.958 62.0928 165.443 63.5463C165.996 64.9998 166.55 66.5225 167.104 68.1144C167.658 69.6371 168.177 71.1944 168.661 72.7863C169.215 74.309 169.699 75.7279 170.115 77.0429H170.322C170.668 75.7279 171.084 74.3436 171.568 72.8901C172.053 71.3674 172.537 69.8448 173.022 68.3221C173.506 66.7994 173.991 65.3459 174.475 63.9616C174.96 62.5773 175.409 61.3661 175.825 60.3279L189.114 23.7832H200.638L175.721 89.1899H164.405L139.695 23.7832H151.427Z" fill="#010333"></path><path d="M112.082 4.11444C112.082 4.11444 98.372 -1.19827 87.0145 10.9726C77.983 4.09652 66.554 0 54.3363 0C42.3442 0 30.5331 4.17267 21.1017 11.602C11.82 18.917 5.10779 29.3722 2.20306 40.851C-2.01774 57.517 1.42325 78.1161 15.0062 89.615C28.4529 101 46.4108 103.112 61.111 95.5168C70.29 90.7752 76.4055 83.4243 80.5995 74.0286C86.1073 61.6897 92.2587 47.474 97.7642 35.1351C102.289 44.6877 102.445 55.5662 100.479 64.8948C98.515 74.2212 93.396 82.851 86.161 89.0372C85.084 89.9577 83.9355 90.8559 83.2361 92.0877C81.4866 95.1607 84.8628 98.7891 87.8435 96.453C89.1819 95.4048 90.5493 94.211 91.8252 92.8873C101.911 83.0839 108.384 69.3273 108.384 54.1305C108.384 44.5623 105.824 35.2493 101.467 27.4572C107.43 14.2941 112.087 4.1122 112.087 4.1122M32.1352 74.145C23.2043 74.6736 14.3806 69.7327 10.2157 61.7995C8.33204 58.2136 7.38019 54.1328 7.56564 50.0788C7.99912 40.6046 11.7507 31.4328 17.7188 24.1133C23.5193 16.9998 31.4045 11.6624 40.1433 8.89857C41.8884 8.34759 43.667 7.89515 45.4657 7.55247C48.3972 6.99253 51.3802 6.7148 54.3653 6.7148C65.7765 6.7148 76.0614 10.6635 83.2093 16.4555C81.8597 18.4489 80.5057 20.4401 79.1494 22.4312C75.9519 27.1257 72.7433 31.8136 69.5213 36.4902C65.7496 41.9619 61.9623 47.4224 58.1303 52.8516C52.8727 60.2966 48.3481 69.0003 39.4708 72.5884C37.1716 73.5179 34.6064 73.9994 32.1374 74.145H32.1352Z" fill="#2642FF"></path></svg>