<svg xmlns="http://www.w3.org/2000/svg" width="104" height="94" viewBox="0 0 104 94" fill="none"><path d="M103.371 4.32643C103.371 4.32643 90.7147 -0.614392 80.2304 10.7045C71.8934 4.30976 61.3431 0.5 50.0647 0.5C38.9947 0.5 28.0918 4.38059 19.3855 11.2898C10.8174 18.0928 4.6213 27.8161 1.93991 38.4914C-1.95637 53.9908 1.22005 73.148 13.7587 83.842C26.1715 94.4297 42.7487 96.394 56.3186 89.3306C64.7918 84.9209 70.4372 78.0846 74.3087 69.3465C79.393 57.8714 85.0714 44.6508 90.1537 33.1756C94.3305 42.0595 94.4748 52.1766 92.6597 60.8521C90.8467 69.5257 86.1213 77.5514 79.4425 83.3046C78.4483 84.1607 77.3882 84.9959 76.7426 86.1416C75.1275 88.9994 78.2441 92.3738 80.9957 90.2013C82.2312 89.2264 83.4935 88.1162 84.6712 86.8852C93.9819 77.768 99.9573 64.9743 99.9573 50.8414C99.9573 41.9429 97.5935 33.2819 93.5714 26.0352C99.0765 13.7936 103.375 4.32434 103.375 4.32434M29.5706 69.4548C21.3264 69.9464 13.1811 65.3514 9.33643 57.9735C7.59765 54.6386 6.71898 50.8434 6.89017 47.0733C7.29032 38.2623 10.7534 29.7325 16.2627 22.9253C21.6172 16.3098 28.8962 11.3461 36.963 8.77566C38.5739 8.26325 40.2158 7.84249 41.8762 7.52379C44.5823 7.00305 47.3359 6.74476 50.0916 6.74476C60.6253 6.74476 70.1195 10.417 76.7178 15.8036C75.472 17.6575 74.222 19.5092 72.97 21.361C70.0184 25.7269 67.0565 30.0866 64.0823 34.4358C60.6006 39.5246 57.1044 44.6029 53.5671 49.652C48.7137 56.5758 44.537 64.6702 36.3422 68.0072C34.2198 68.8716 31.8519 69.3194 29.5727 69.4548H29.5706Z" fill="#2642FF"></path></svg>